<svg id="visual" viewBox="0 0 900 600" width="900" height="600" xmlns="http://www.w3.org/2000/svg" xmlns:xlink="http://www.w3.org/1999/xlink" version="1.1"><rect x="0" y="0" width="900" height="600" fill="#001220"></rect><path d="M0 447L21.5 436.3C43 425.7 86 404.3 128.8 394.2C171.7 384 214.3 385 257.2 386.7C300 388.3 343 390.7 385.8 398C428.7 405.3 471.3 417.7 514.2 410.8C557 404 600 378 642.8 371.5C685.7 365 728.3 378 771.2 380.5C814 383 857 375 878.5 371L900 367L900 601L878.5 601C857 601 814 601 771.2 601C728.3 601 685.7 601 642.8 601C600 601 557 601 514.2 601C471.3 601 428.7 601 385.8 601C343 601 300 601 257.2 601C214.3 601 171.7 601 128.8 601C86 601 43 601 21.5 601L0 601Z" fill="#fa7268"></path><path d="M0 476L21.5 466C43 456 86 436 128.8 425.7C171.7 415.3 214.3 414.7 257.2 414.8C300 415 343 416 385.8 417.7C428.7 419.3 471.3 421.7 514.2 418.5C557 415.3 600 406.7 642.8 409.3C685.7 412 728.3 426 771.2 425.7C814 425.3 857 410.7 878.5 403.3L900 396L900 601L878.5 601C857 601 814 601 771.2 601C728.3 601 685.7 601 642.8 601C600 601 557 601 514.2 601C471.3 601 428.7 601 385.8 601C343 601 300 601 257.2 601C214.3 601 171.7 601 128.8 601C86 601 43 601 21.5 601L0 601Z" fill="#ef5f67"></path><path d="M0 449L21.5 453.2C43 457.3 86 465.7 128.8 467.3C171.7 469 214.3 464 257.2 462.3C300 460.7 343 462.3 385.8 461.2C428.7 460 471.3 456 514.2 456.2C557 456.3 600 460.7 642.8 458.8C685.7 457 728.3 449 771.2 454.7C814 460.3 857 479.7 878.5 489.3L900 499L900 601L878.5 601C857 601 814 601 771.2 601C728.3 601 685.7 601 642.8 601C600 601 557 601 514.2 601C471.3 601 428.7 601 385.8 601C343 601 300 601 257.2 601C214.3 601 171.7 601 128.8 601C86 601 43 601 21.5 601L0 601Z" fill="#e34c67"></path><path d="M0 495L21.5 496C43 497 86 499 128.8 506.3C171.7 513.7 214.3 526.3 257.2 527.5C300 528.7 343 518.3 385.8 509.3C428.7 500.3 471.3 492.7 514.2 497.3C557 502 600 519 642.8 522.8C685.7 526.7 728.3 517.3 771.2 514.7C814 512 857 516 878.5 518L900 520L900 601L878.5 601C857 601 814 601 771.2 601C728.3 601 685.7 601 642.8 601C600 601 557 601 514.2 601C471.3 601 428.7 601 385.8 601C343 601 300 601 257.2 601C214.3 601 171.7 601 128.8 601C86 601 43 601 21.5 601L0 601Z" fill="#d53867"></path><path d="M0 538L21.5 537.7C43 537.3 86 536.7 128.8 541.5C171.7 546.3 214.3 556.7 257.2 555.3C300 554 343 541 385.8 536.7C428.7 532.3 471.3 536.7 514.2 538.3C557 540 600 539 642.8 543C685.7 547 728.3 556 771.2 560.8C814 565.7 857 566.3 878.5 566.7L900 567L900 601L878.5 601C857 601 814 601 771.2 601C728.3 601 685.7 601 642.8 601C600 601 557 601 514.2 601C471.3 601 428.7 601 385.8 601C343 601 300 601 257.2 601C214.3 601 171.7 601 128.8 601C86 601 43 601 21.5 601L0 601Z" fill="#c62368"></path></svg>